<!-- Generator: Adobe Illustrator 19.2.1, SVG Export Plug-In  -->
<svg version="1.1"
	 xmlns="http://www.w3.org/2000/svg" xmlns:xlink="http://www.w3.org/1999/xlink" xmlns:a="http://ns.adobe.com/AdobeSVGViewerExtensions/3.0/"
	 x="0px" y="0px" width="469.2px" height="354.4px" viewBox="0 0 469.2 354.4" style="enable-background:new 0 0 469.2 354.4;"
	 xml:space="preserve">
<style type="text/css">
	.st0{fill:#FFFFFF;}
	.st1{fill:#E0E0E0;}
</style>
<defs>
</defs>
<g>
	<path class="st0" d="M441.7,1.9c-1.8-1.5-4.1-2.2-6.5-1.8L284.7,23.2c-22,3.9-35.6,10.4-44.1,16.9v292.3c1.2-1.4,2-3.2,2-5.3
		c0-19.8,20.8-24.7,22.5-25.1l172.6-27.6c3.9-0.6,6.7-4,6.7-7.9V8C444.5,5.7,443.5,3.4,441.7,1.9z"/>
	<path class="st0" d="M228.6,40.1c-8.5-6.6-22.2-13.1-44.3-17L34,0.1c-2.3-0.4-4.7,0.3-6.5,1.8c-1.8,1.5-2.8,3.7-2.8,6.1v258.5
		c0,3.9,2.9,7.3,6.7,7.9L204,302c1.9,0.4,22.6,5.3,22.6,25.1c0,2,0.8,3.8,2,5.3V40.1z"/>
</g>
<g>
	<path class="st1" d="M234.6,354.4h-21.4c-4.4,0-8-3.6-8-8c0-18.2-30.7-18.7-31.1-18.7c-0.3,0-0.7,0-1-0.1l-166.2-23
		C3,304,0,300.6,0,296.6V32.1c0-4.4,3.6-8,8-8s8,3.6,8,8v257.6l158.8,22c14.6,0.3,40.1,6.3,45.4,26.7h14.4c4.4,0,8,3.6,8,8
		S239,354.4,234.6,354.4z"/>
	<path class="st1" d="M256,354.4h-21.4c-4.4,0-8-3.6-8-8s3.6-8,8-8H249c5.3-20.4,30.8-26.4,45.4-26.7l158.7-22V32.1c0-4.4,3.6-8,8-8
		c4.4,0,8,3.6,8,8v264.6c0,4-3,7.4-6.9,7.9l-166.1,23c-0.3,0-0.7,0.1-1,0.1c-0.3,0-31.1,0.6-31.1,18.7
		C264,350.8,260.5,354.4,256,354.4z"/>
</g>
</svg>
